<svg width="18" height="21" viewBox="0 0 18 21" fill="none" xmlns="http://www.w3.org/2000/svg">
<path fill-rule="evenodd" clip-rule="evenodd" d="M1.18943 5.88359C1.25071 4.96432 2.01424 4.25 2.93555 4.25H15.0644C15.9858 4.25 16.7493 4.96432 16.8106 5.88359L17.6772 18.8836C17.7446 19.8937 16.9434 20.75 15.9311 20.75H2.06889C1.05657 20.75 0.255424 19.8937 0.322762 18.8836L1.18943 5.88359ZM2.93555 5.75C2.80394 5.75 2.69486 5.85205 2.68611 5.98337L1.81944 18.9834C1.80982 19.1277 1.92427 19.25 2.06889 19.25H15.9311C16.0757 19.25 16.1902 19.1277 16.1806 18.9834L15.3139 5.98337C15.3051 5.85205 15.1961 5.75 15.0644 5.75H2.93555Z" fill="#C4C4C4"/>
<path fill-rule="evenodd" clip-rule="evenodd" d="M5.25 4C5.25 1.92893 6.92893 0.25 9 0.25C11.0711 0.25 12.75 1.92893 12.75 4V7C12.75 7.41421 12.4142 7.75 12 7.75C11.5858 7.75 11.25 7.41421 11.25 7V4C11.25 2.75736 10.2426 1.75 9 1.75C7.75736 1.75 6.75 2.75736 6.75 4V7C6.75 7.41421 6.41421 7.75 6 7.75C5.58579 7.75 5.25 7.41421 5.25 7V4Z" fill="#C4C4C4"/>
</svg>
